<svg width="45" height="64" viewBox="0 0 45 64" fill="none" xmlns="http://www.w3.org/2000/svg">
<path d="M62 23.012H39.082L32 2L24.92 23.012H2L20.541 36L13.459 57.01L32 44.023L50.541 57.01L43.459 36L62 23.012Z" fill="#A79749"/>
<path d="M46.234 20.344L50.16 8.85699L39.721 16.068L41.182 20.344H46.234ZM27.912 50.035L32 62L36.09 50.035L32 47.211L27.912 50.035ZM50.68 34.307L46.855 36.949L48.479 41.701H61.383L50.68 34.307ZM24.277 16.068L13.84 8.85699L17.766 20.344H22.818L24.277 16.068ZM13.32 34.307L2.617 41.701H15.52L17.145 36.949L13.32 34.307Z" fill="#A79749"/>
</svg>
